<svg xmlns="http://www.w3.org/2000/svg" version="1.1" xmlns:xlink="http://www.w3.org/1999/xlink" xmlns:svgjs="http://svgjs.dev/svgjs" viewBox="0 0 2400 800" opacity="0.93"><defs><linearGradient x1="50%" y1="0%" x2="50%" y2="100%" id="sssurf-grad"><stop stop-color="#ffbb6dff" stop-opacity="1" offset="0%"></stop><stop stop-color="#252335ff" stop-opacity="1" offset="100%"></stop></linearGradient></defs><g fill="url(#sssurf-grad)" transform="matrix(1,0,0,1,0,-198.40133666992188)"><path d="M 0 299.2216964954061 Q 360 569.0830940053937 480 331.3844596413026 Q 840 619.8974433301807 960 286.80267026869336 Q 1320 559.6103707812474 1440 315.8079049574236 Q 1800 541.4293296275098 1920 301.11934340931344 Q 2280 614.9605100976241 2400 337.7492104220007 L 2400 800 L 0 800 L 0 309.2796010122397 Z" transform="matrix(1,0,0,1,0,51)" opacity="0.05"></path><path d="M 0 299.2216964954061 Q 360 569.0830940053937 480 331.3844596413026 Q 840 619.8974433301807 960 286.80267026869336 Q 1320 559.6103707812474 1440 315.8079049574236 Q 1800 541.4293296275098 1920 301.11934340931344 Q 2280 614.9605100976241 2400 337.7492104220007 L 2400 800 L 0 800 L 0 309.2796010122397 Z" transform="matrix(1,0,0,1,0,102)" opacity="0.17"></path><path d="M 0 299.2216964954061 Q 360 569.0830940053937 480 331.3844596413026 Q 840 619.8974433301807 960 286.80267026869336 Q 1320 559.6103707812474 1440 315.8079049574236 Q 1800 541.4293296275098 1920 301.11934340931344 Q 2280 614.9605100976241 2400 337.7492104220007 L 2400 800 L 0 800 L 0 309.2796010122397 Z" transform="matrix(1,0,0,1,0,153)" opacity="0.29"></path><path d="M 0 299.2216964954061 Q 360 569.0830940053937 480 331.3844596413026 Q 840 619.8974433301807 960 286.80267026869336 Q 1320 559.6103707812474 1440 315.8079049574236 Q 1800 541.4293296275098 1920 301.11934340931344 Q 2280 614.9605100976241 2400 337.7492104220007 L 2400 800 L 0 800 L 0 309.2796010122397 Z" transform="matrix(1,0,0,1,0,204)" opacity="0.41"></path><path d="M 0 299.2216964954061 Q 360 569.0830940053937 480 331.3844596413026 Q 840 619.8974433301807 960 286.80267026869336 Q 1320 559.6103707812474 1440 315.8079049574236 Q 1800 541.4293296275098 1920 301.11934340931344 Q 2280 614.9605100976241 2400 337.7492104220007 L 2400 800 L 0 800 L 0 309.2796010122397 Z" transform="matrix(1,0,0,1,0,255)" opacity="0.53"></path><path d="M 0 299.2216964954061 Q 360 569.0830940053937 480 331.3844596413026 Q 840 619.8974433301807 960 286.80267026869336 Q 1320 559.6103707812474 1440 315.8079049574236 Q 1800 541.4293296275098 1920 301.11934340931344 Q 2280 614.9605100976241 2400 337.7492104220007 L 2400 800 L 0 800 L 0 309.2796010122397 Z" transform="matrix(1,0,0,1,0,306)" opacity="0.64"></path><path d="M 0 299.2216964954061 Q 360 569.0830940053937 480 331.3844596413026 Q 840 619.8974433301807 960 286.80267026869336 Q 1320 559.6103707812474 1440 315.8079049574236 Q 1800 541.4293296275098 1920 301.11934340931344 Q 2280 614.9605100976241 2400 337.7492104220007 L 2400 800 L 0 800 L 0 309.2796010122397 Z" transform="matrix(1,0,0,1,0,357)" opacity="0.76"></path><path d="M 0 299.2216964954061 Q 360 569.0830940053937 480 331.3844596413026 Q 840 619.8974433301807 960 286.80267026869336 Q 1320 559.6103707812474 1440 315.8079049574236 Q 1800 541.4293296275098 1920 301.11934340931344 Q 2280 614.9605100976241 2400 337.7492104220007 L 2400 800 L 0 800 L 0 309.2796010122397 Z" transform="matrix(1,0,0,1,0,408)" opacity="0.88"></path><path d="M 0 299.2216964954061 Q 360 569.0830940053937 480 331.3844596413026 Q 840 619.8974433301807 960 286.80267026869336 Q 1320 559.6103707812474 1440 315.8079049574236 Q 1800 541.4293296275098 1920 301.11934340931344 Q 2280 614.9605100976241 2400 337.7492104220007 L 2400 800 L 0 800 L 0 309.2796010122397 Z" transform="matrix(1,0,0,1,0,459)" opacity="1.00"></path></g></svg>